HIERARCHY
ROOT Hips
{
	OFFSET 0.000000 83.214638 0.000000
	CHANNELS 6 Xposition Yposition Zposition Xrotation Yrotation Zrotation
	JOINT Pelvis
	{
		OFFSET 0.000000 0.000000 0.000000
		CHANNELS 3 Xrotation Yrotation Zrotation
		JOINT LeftUpLeg
		{
			OFFSET 8.479700 -4.795502 -0.379100
			CHANNELS 3 Xrotation Yrotation Zrotation
			JOINT LeftLeg
			{
				OFFSET 0.024144 -32.555107 0.112900
				CHANNELS 3 Xrotation Yrotation Zrotation
				JOINT LeftFoot
				{
					OFFSET -0.024144 -32.638630 -3.012600
					CHANNELS 3 Xrotation Yrotation Zrotation
					JOINT LeftToeBase
					{
						OFFSET 0.970200 -13.225400 11.864200
						CHANNELS 3 Xrotation Yrotation Zrotation
						End Site
						{
							OFFSET 0.000000 12.319262 0.000000
						}
					}
					JOINT LFootTongue
					{
						OFFSET 1.142400 -1.059800 6.665200
						CHANNELS 3 Xrotation Yrotation Zrotation
						End Site
						{
							OFFSET 0.000000 12.319262 0.000000
						}
					}
				}
				JOINT LeftPantLeg
				{
					OFFSET 0.918482 -16.533964 -2.284700
					CHANNELS 3 Xrotation Yrotation Zrotation
					End Site
					{
						OFFSET 0.350399 24.744368 0.000000
					}
				}
			}
		}
		JOINT RightUpLeg
		{
			OFFSET -8.479700 -4.795502 -0.379100
			CHANNELS 3 Xrotation Yrotation Zrotation
			JOINT RightLeg
			{
				OFFSET -0.023144 -32.555092 0.112900
				CHANNELS 3 Xrotation Yrotation Zrotation
				JOINT RightFoot
				{
					OFFSET 0.023144 -32.638641 -3.012700
					CHANNELS 3 Xrotation Yrotation Zrotation
					JOINT RightToeBase
					{
						OFFSET -0.970200 -13.225400 11.864200
						CHANNELS 3 Xrotation Yrotation Zrotation
						End Site
						{
							OFFSET 0.000000 12.319244 0.000000
						}
					}
					JOINT RFootTongue
					{
						OFFSET -1.142200 -1.059800 6.665200
						CHANNELS 3 Xrotation Yrotation Zrotation
						End Site
						{
							OFFSET 0.000000 12.319243 0.000000
						}
					}
				}
				JOINT RightPantLeg
				{
					OFFSET -0.919482 -16.533978 -2.284800
					CHANNELS 3 Xrotation Yrotation Zrotation
					End Site
					{
						OFFSET -0.350400 24.744419 0.000000
					}
				}
			}
		}
	}
	JOINT Spine
	{
		OFFSET 0.000000 7.722000 1.166200
		CHANNELS 3 Xrotation Yrotation Zrotation
		JOINT Spine1
		{
			OFFSET 0.000000 12.024101 0.248800
			CHANNELS 3 Xrotation Yrotation Zrotation
			JOINT Spine2
			{
				OFFSET 0.000000 11.502998 -0.491200
				CHANNELS 3 Xrotation Yrotation Zrotation
				JOINT Neck
				{
					OFFSET 0.000000 18.430702 -3.123100
					CHANNELS 3 Xrotation Yrotation Zrotation
					JOINT Head
					{
						OFFSET 0.000000 9.051102 1.034000
						CHANNELS 3 Xrotation Yrotation Zrotation
						JOINT HairB
						{
							OFFSET 0.208400 24.786102 24.822300
							CHANNELS 3 Xrotation Yrotation Zrotation
							End Site
							{
								OFFSET 0.000000 32.263779 0.000000
							}
						}
						JOINT HairA
						{
							OFFSET -7.081100 24.428299 23.196600
							CHANNELS 3 Xrotation Yrotation Zrotation
							End Site
							{
								OFFSET 0.000000 32.263779 0.000000
							}
						}
						JOINT Hat
						{
							OFFSET 16.728800 15.048294 -15.439601
							CHANNELS 3 Xrotation Yrotation Zrotation
							End Site
							{
								OFFSET 0.000000 32.263779 0.000000
							}
						}
					}
				}
				JOINT LeftShoulder
				{
					OFFSET 6.197800 13.665199 -4.064700
					CHANNELS 3 Xrotation Yrotation Zrotation
					JOINT LeftArm
					{
						OFFSET 7.778100 -0.187103 -1.709300
						CHANNELS 3 Xrotation Yrotation Zrotation
						JOINT LeftForeArm
						{
							OFFSET 22.049376 0.000000 0.000000
							CHANNELS 3 Xrotation Yrotation Zrotation
							JOINT LeftHand
							{
								OFFSET 23.009392 0.000000 0.000000
								CHANNELS 3 Xrotation Yrotation Zrotation
								JOINT LeftHandThumb1
								{
									OFFSET 3.507191 -2.063065 3.133727
									CHANNELS 3 Xrotation Yrotation Zrotation
									JOINT LeftHandThumb2
									{
										OFFSET 3.101337 -1.790558 1.790558
										CHANNELS 3 Xrotation Yrotation Zrotation
										JOINT LeftHandThumb3
										{
											OFFSET 3.058640 -1.765907 1.765906
											CHANNELS 3 Xrotation Yrotation Zrotation
											End Site
											{
												OFFSET -0.415260 3.926476 -0.049563
											}
										}
									}
								}
								JOINT LeftHandIndex1
								{
									OFFSET 11.334419 -0.901459 3.706815
									CHANNELS 3 Xrotation Yrotation Zrotation
									JOINT LeftHandIndex2
									{
										OFFSET 3.283112 0.000000 0.000000
										CHANNELS 3 Xrotation Yrotation Zrotation
										JOINT LeftHandIndex3
										{
											OFFSET 3.323853 0.000000 0.000000
											CHANNELS 3 Xrotation Yrotation Zrotation
											End Site
											{
												OFFSET -1.135597 3.097809 0.402452
											}
										}
									}
								}
								JOINT LeftHandMiddle1
								{
									OFFSET 11.335861 0.000000 0.000000
									CHANNELS 3 Xrotation Yrotation Zrotation
									JOINT LeftHandMiddle2
									{
										OFFSET 3.410492 0.000000 0.000000
										CHANNELS 3 Xrotation Yrotation Zrotation
										JOINT LeftHandMiddle3
										{
											OFFSET 3.312172 0.000000 0.000000
											CHANNELS 3 Xrotation Yrotation Zrotation
											End Site
											{
												OFFSET -1.150200 3.080154 0.400270
											}
										}
									}
								}
								JOINT LeftHandRing1
								{
									OFFSET 11.514786 -0.013176 -3.003090
									CHANNELS 3 Xrotation Yrotation Zrotation
									JOINT LeftHandRing2
									{
										OFFSET 3.053307 0.000000 0.000000
										CHANNELS 3 Xrotation Yrotation Zrotation
										JOINT LeftHandRing3
										{
											OFFSET 3.295807 0.000000 0.000000
											CHANNELS 3 Xrotation Yrotation Zrotation
											End Site
											{
												OFFSET -1.281006 3.013344 0.375733
											}
										}
									}
								}
								JOINT LeftHandPinky1
								{
									OFFSET 10.518692 -0.960396 -5.730441
									CHANNELS 3 Xrotation Yrotation Zrotation
									JOINT LeftHandPinky2
									{
										OFFSET 2.861649 0.000000 0.000000
										CHANNELS 3 Xrotation Yrotation Zrotation
										JOINT LeftHandPinky3
										{
											OFFSET 2.863380 0.000000 0.000000
											CHANNELS 3 Xrotation Yrotation Zrotation
											End Site
											{
												OFFSET -0.843597 2.711159 0.369971
											}
										}
									}
								}
							}
							JOINT LSleeve
							{
								OFFSET 6.676277 -0.344902 -1.011730
								CHANNELS 3 Xrotation Yrotation Zrotation
								End Site
								{
									OFFSET 0.000000 14.885353 0.000000
								}
							}
						}
					}
				}
				JOINT RightShoulder
				{
					OFFSET -6.197800 13.665199 -4.064700
					CHANNELS 3 Xrotation Yrotation Zrotation
					JOINT RightArm
					{
						OFFSET -7.778100 -0.187103 -1.709300
						CHANNELS 3 Xrotation Yrotation Zrotation
						JOINT RightForeArm
						{
							OFFSET -22.049376 0.000000 0.000000
							CHANNELS 3 Xrotation Yrotation Zrotation
							JOINT RightHand
							{
								OFFSET -23.009392 0.000000 0.000000
								CHANNELS 3 Xrotation Yrotation Zrotation
								JOINT RightHandThumb1
								{
									OFFSET -3.507191 -2.063065 3.133727
									CHANNELS 3 Xrotation Yrotation Zrotation
									JOINT RightHandThumb2
									{
										OFFSET -3.101337 -1.790558 1.790558
										CHANNELS 3 Xrotation Yrotation Zrotation
										JOINT RightHandThumb3
										{
											OFFSET -3.058640 -1.765907 1.765906
											CHANNELS 3 Xrotation Yrotation Zrotation
											End Site
											{
												OFFSET 0.415260 3.926476 -0.049563
											}
										}
									}
								}
								JOINT RightHandIndex1
								{
									OFFSET -11.334419 -0.901459 3.706815
									CHANNELS 3 Xrotation Yrotation Zrotation
									JOINT RightHandIndex2
									{
										OFFSET -3.283112 0.000000 0.000000
										CHANNELS 3 Xrotation Yrotation Zrotation
										JOINT RightHandIndex3
										{
											OFFSET -3.323853 0.000000 0.000000
											CHANNELS 3 Xrotation Yrotation Zrotation
											End Site
											{
												OFFSET 1.135597 3.097809 0.402452
											}
										}
									}
								}
								JOINT RightHandMiddle1
								{
									OFFSET -11.335861 0.000000 0.000000
									CHANNELS 3 Xrotation Yrotation Zrotation
									JOINT RightHandMiddle2
									{
										OFFSET -3.410492 0.000000 0.000000
										CHANNELS 3 Xrotation Yrotation Zrotation
										JOINT RightHandMiddle3
										{
											OFFSET -3.312172 0.000000 0.000000
											CHANNELS 3 Xrotation Yrotation Zrotation
											End Site
											{
												OFFSET 1.150200 3.080154 0.400270
											}
										}
									}
								}
								JOINT RightHandRing1
								{
									OFFSET -11.514786 -0.013176 -3.003090
									CHANNELS 3 Xrotation Yrotation Zrotation
									JOINT RightHandRing2
									{
										OFFSET -3.053307 0.000000 0.000000
										CHANNELS 3 Xrotation Yrotation Zrotation
										JOINT RightHandRing3
										{
											OFFSET -3.295807 0.000000 0.000000
											CHANNELS 3 Xrotation Yrotation Zrotation
											End Site
											{
												OFFSET 1.281006 3.013344 0.375733
											}
										}
									}
								}
								JOINT RightHandPinky1
								{
									OFFSET -10.518692 -0.960396 -5.730441
									CHANNELS 3 Xrotation Yrotation Zrotation
									JOINT RightHandPinky2
									{
										OFFSET -2.861649 0.000000 0.000000
										CHANNELS 3 Xrotation Yrotation Zrotation
										JOINT RightHandPinky3
										{
											OFFSET -2.863380 0.000000 0.000000
											CHANNELS 3 Xrotation Yrotation Zrotation
											End Site
											{
												OFFSET 0.843597 2.711159 0.369971
											}
										}
									}
								}
							}
							JOINT RSleeve
							{
								OFFSET -6.676277 -0.344902 -1.011730
								CHANNELS 3 Xrotation Yrotation Zrotation
								End Site
								{
									OFFSET 0.000000 14.885353 0.000000
								}
							}
						}
					}
				}
				JOINT Backpack
				{
					OFFSET 0.000000 -2.471497 36.677502
					CHANNELS 3 Xrotation Yrotation Zrotation
					End Site
					{
						OFFSET 0.000000 20.427315 0.000000
					}
				}
				JOINT Hood
				{
					OFFSET 0.000000 18.754097 -10.431000
					CHANNELS 3 Xrotation Yrotation Zrotation
					JOINT Hood1
					{
						OFFSET 0.000000 -5.011002 -7.685901
						CHANNELS 3 Xrotation Yrotation Zrotation
						End Site
						{
							OFFSET 0.000000 9.175140 0.000000
						}
					}
				}
				JOINT LHoodieString
				{
					OFFSET 5.250500 16.397697 3.089900
					CHANNELS 3 Xrotation Yrotation Zrotation
					JOINT LHoodieString1
					{
						OFFSET 0.257700 -6.364304 3.694600
						CHANNELS 3 Xrotation Yrotation Zrotation
						JOINT LHoodieString2
						{
							OFFSET 0.000000 -9.643799 2.679100
							CHANNELS 3 Xrotation Yrotation Zrotation
							End Site
							{
								OFFSET 0.000000 10.009018 0.000000
							}
						}
					}
				}
				JOINT RHoodieString
				{
					OFFSET -5.250500 16.397697 3.089900
					CHANNELS 3 Xrotation Yrotation Zrotation
					JOINT RHoodieString1
					{
						OFFSET -0.257700 -6.364304 3.694600
						CHANNELS 3 Xrotation Yrotation Zrotation
						JOINT RHoodieString2
						{
							OFFSET 0.000000 -9.643799 2.679100
							CHANNELS 3 Xrotation Yrotation Zrotation
							End Site
							{
								OFFSET 0.000000 10.009018 0.000000
							}
						}
					}
				}
			}
			JOINT LBackpack_Strap
			{
				OFFSET 15.223200 -7.719803 -6.610900
				CHANNELS 3 Xrotation Yrotation Zrotation
				End Site
				{
					OFFSET 0.000000 16.040596 0.000000
				}
			}
			JOINT RBackpack_Strap
			{
				OFFSET -15.223000 -7.719803 -6.610900
				CHANNELS 3 Xrotation Yrotation Zrotation
				End Site
				{
					OFFSET 0.000000 16.040596 0.000000
				}
			}
		}
	}
	JOINT BoyFacialAnim_Joint
	{
		OFFSET 1.000000 -82.208099 -1.550900
		CHANNELS 3 Xrotation Yrotation Zrotation
		End Site
		{
			OFFSET 0.000000 30.012791 0.000000
		}
	}
}
MOTION
Frames: 4
Frame Time: 0.033333
-0.007676 67.772507 171.209106 27.080833 -17.555656 5.121115 -0.000002 0.000001 -0.000000 -87.986490 2.130934 8.451941 60.481004 -5.169802 -2.491122 -31.414133 13.086029 0.771529 -0.000000 0.000000 -0.000000 -0.000000 0.000000 -0.000000 0.000000 -0.000000 -0.000001 -51.246728 3.618182 0.216216 72.658214 0.165665 2.475402 -39.655665 0.791132 0.457483 0.000001 -0.000000 0.000000 0.000001 -0.000000 0.000000 -0.000001 0.000001 -0.000001 9.681387 -0.166289 -0.344790 19.361908 -0.569405 -0.568775 19.361889 -0.569403 -0.568771 1.457722 -0.064826 -4.038220 -58.344842 7.432286 4.905072 0.000001 0.000001 -0.000000 0.000001 0.000001 -0.000000 0.000001 0.000001 -0.000000 0.652928 -3.847361 -5.325705 -26.460366 -6.901613 -31.290206 0.118678 -66.716359 0.189542 34.245896 23.663995 28.896966 7.551169 17.876608 5.955319 -0.669751 14.379877 -7.159986 0.000001 -0.000004 0.000004 -5.874038 3.372510 -16.420482 -0.263073 -0.553671 -22.199646 0.000002 0.000001 -0.000002 0.088929 6.843542 -10.704529 -0.332823 -1.763158 -19.321003 -0.000000 0.000000 0.000000 0.682359 6.463345 -10.127737 -0.583649 -2.172852 -36.894845 -0.000003 0.000000 -0.000002 3.233021 13.103264 -29.685156 -0.031004 -0.796967 -12.622756 0.000000 0.000000 0.000005 0.000001 0.000000 -0.000000 0.730261 1.217662 7.193295 -28.127315 0.107196 33.301223 0.231291 70.887938 -0.295704 21.400624 1.544668 -1.862968 -16.204858 -1.428002 -17.276007 -1.140763 -2.718729 4.768416 0.000002 0.000002 -0.000001 -6.097392 2.797963 -5.955291 0.060987 -0.573585 18.744332 -0.000001 -0.000000 0.000002 -1.221027 -4.071138 -1.749254 -0.251647 1.405808 27.488913 -0.000004 0.000000 -0.000000 3.546388 -11.361284 7.545978 -0.737905 2.630449 23.693414 -0.000001 0.000001 0.000001 6.091353 -4.366294 17.477522 -0.255481 2.290767 9.446781 0.000001 -0.000001 -0.000000 0.000002 -0.000003 -0.000002 -0.000001 0.000000 0.000001 -0.000001 0.000000 0.000001 -0.000001 0.000000 0.000001 -0.000001 0.000000 0.000001 -0.000001 0.000000 0.000001 0.000001 0.000000 0.000001 -0.000001 0.000000 0.000001 -0.000001 0.000000 0.000001 0.000001 0.000000 0.000001 0.000001 -0.000001 0.000001 0.000001 -0.000001 0.000001 -0.000002 0.000001 -0.000000 
0.134292 68.521309 178.009109 27.979218 -18.328152 4.824574 0.000000 0.000000 -0.000001 -87.176723 1.080839 9.117760 55.269382 -8.271501 -2.615932 -35.082341 15.186220 -0.074496 0.000001 0.000000 -0.000001 0.000001 0.000000 -0.000001 -0.000000 -0.000001 -0.000001 -46.136326 5.516051 -0.168260 70.399299 -0.526941 2.355108 -34.328087 -0.941184 2.173469 0.000000 -0.000000 0.000000 0.000000 -0.000000 0.000000 -0.000000 0.000000 0.000001 9.631102 0.081026 -0.372514 19.261813 -0.139597 -0.713620 19.261806 -0.139591 -0.713626 1.403071 -0.081065 -3.708030 -58.255305 7.087330 5.560591 -0.000000 -0.000000 -0.000000 -0.000000 -0.000000 -0.000000 -0.000000 -0.000000 -0.000000 0.695849 -3.219946 -4.926459 -24.957846 -6.547466 -31.665044 0.112495 -66.446013 0.186329 33.599312 23.845896 28.709993 7.576900 18.363389 6.477590 -0.553481 14.572304 -7.170071 0.000000 -0.000001 -0.000003 -5.855003 3.495739 -16.907389 -0.273064 -0.571240 -22.401987 -0.000004 0.000000 -0.000002 0.142341 7.219209 -11.246237 -0.340965 -1.787707 -19.559894 0.000002 0.000003 -0.000003 0.835862 6.728178 -11.190245 -0.593446 -2.192619 -37.082159 -0.000000 0.000000 -0.000000 3.319467 13.026348 -30.391518 -0.028901 -0.802862 -12.854402 -0.000000 -0.000001 0.000001 -0.000000 0.000002 -0.000000 0.754442 0.854075 6.726392 -27.778711 -0.166620 32.686738 0.244887 71.869245 -0.309140 20.575400 1.644627 -2.645120 -16.231205 -0.584930 -17.352386 -1.391623 -2.457527 4.947268 0.000002 0.000001 -0.000004 -6.113490 2.749507 -6.813572 0.090490 -0.665354 17.835393 0.000001 -0.000004 0.000005 -1.261949 -3.922095 -1.898716 -0.209758 1.321221 26.403519 0.000000 0.000002 0.000000 3.658511 -11.452532 7.224431 -0.702311 2.551520 22.661453 0.000001 -0.000004 0.000003 6.092311 -4.234123 17.362027 -0.230063 2.155965 8.122014 0.000003 0.000002 0.000000 -0.000000 -0.000003 -0.000005 -0.000000 0.000000 0.000001 -0.000000 0.000000 0.000001 -0.000000 0.000000 0.000001 -0.000000 0.000000 0.000001 -0.000000 0.000000 0.000000 -0.000000 -0.000000 0.000000 -0.000000 0.000000 0.000001 -0.000000 0.000000 0.000000 -0.000000 -0.000000 0.000000 0.000001 -0.000001 0.000001 0.000001 -0.000001 0.000001 0.000000 0.000000 -0.000001 
0.352271 68.683670 184.943604 28.418218 -18.716718 4.173973 -0.000001 0.000001 -0.000000 -87.063554 2.249000 8.565441 56.952921 -8.245347 -2.618531 -34.591254 10.145685 5.744556 0.000004 -0.000000 -0.000000 0.000004 -0.000000 -0.000000 0.000000 0.000001 0.000000 -44.362669 9.220819 0.210469 71.099387 -1.207305 2.289142 -19.987989 -2.917819 5.853892 0.000003 -0.000001 0.000001 0.000003 -0.000001 0.000001 0.000000 -0.000000 -0.000000 9.551967 0.132467 -0.394452 19.103875 0.117598 -0.590668 19.103867 0.117593 -0.590667 1.665994 -0.101739 -3.365420 -58.097760 6.688213 6.376147 0.000001 -0.000000 -0.000000 0.000001 -0.000000 -0.000000 0.000001 -0.000000 -0.000000 0.717853 -2.956758 -4.737789 -24.145743 -6.373150 -32.198048 0.105558 -66.098575 0.182960 31.635097 24.191917 29.128445 7.508897 18.586382 6.958140 -0.585951 14.491139 -7.151566 -0.000001 -0.000002 -0.000003 -5.793993 3.797636 -17.175474 -0.274775 -0.571548 -22.408737 -0.000001 -0.000001 -0.000004 0.222537 7.717386 -11.697239 -0.343710 -1.795130 -19.630254 -0.000000 -0.000000 -0.000003 0.945021 6.936367 -11.681089 -0.586176 -2.190179 -36.854338 -0.000001 -0.000001 -0.000004 3.397588 12.611655 -31.333271 -0.026395 -0.804767 -12.894775 -0.000001 -0.000001 0.000001 0.000000 0.000000 0.000000 0.789379 0.328005 6.513890 -27.029555 -0.346970 32.110167 0.248540 72.244946 -0.312704 19.810848 1.506341 -2.418888 -16.291096 0.087939 -17.154199 -1.499120 -2.473350 5.110838 0.000000 -0.000000 -0.000003 -6.078988 2.922400 -7.692761 0.113836 -0.735196 16.971704 -0.000000 0.000001 0.000000 -1.246253 -4.014184 -2.031651 -0.177621 1.256031 25.606004 -0.000002 0.000001 -0.000002 3.821103 -11.696045 7.089627 -0.678295 2.494378 21.930015 0.000002 -0.000002 0.000005 6.108579 -4.148437 17.352224 -0.211783 2.047205 7.052088 0.000002 -0.000002 0.000002 0.000001 0.000001 -0.000003 0.000000 -0.000000 0.000001 0.000000 -0.000000 0.000001 0.000000 -0.000000 0.000001 0.000000 -0.000000 0.000001 0.000000 -0.000000 -0.000001 0.000000 -0.000001 0.000001 0.000000 -0.000000 0.000001 0.000000 -0.000000 -0.000001 0.000000 -0.000001 0.000001 -0.000000 0.000000 -0.000000 -0.000000 0.000000 -0.000000 -0.000001 0.000001 -0.000000 
0.623811 67.984535 191.451141 28.246544 -18.039853 3.631169 0.000001 0.000001 -0.000000 -87.372094 4.649795 7.132123 61.221335 -1.924892 -2.287370 -24.363208 4.650597 10.166643 -0.000001 -0.000000 0.000000 -0.000001 -0.000000 -0.000000 0.000000 0.000002 0.000000 -45.796213 14.393184 2.456608 71.975543 0.164405 2.506853 4.000046 -1.607871 5.759978 -0.000004 -0.000000 -0.000001 -0.000004 -0.000000 -0.000001 -0.000000 -0.000001 -0.000000 9.506585 -0.163203 -0.519940 19.014369 -0.114204 -0.276851 19.014383 -0.114206 -0.276855 2.207276 -0.207738 -2.587266 -58.165065 6.555899 6.610096 -0.000001 0.000000 -0.000001 -0.000001 0.000000 -0.000001 -0.000001 0.000000 -0.000001 0.717318 -3.117516 -4.802120 -24.684338 -6.342045 -32.506400 0.100198 -65.851233 0.178952 29.557026 24.660804 30.064929 7.575678 17.930899 5.962383 -0.736491 14.192125 -7.110699 -0.000003 0.000001 -0.000001 -5.776977 3.864751 -17.021439 -0.268563 -0.559586 -22.202223 0.000001 -0.000001 -0.000005 0.200945 7.356021 -11.742197 -0.339462 -1.780606 -19.488872 0.000000 0.000000 0.000000 0.898747 6.864799 -11.334340 -0.566685 -2.167543 -36.263120 -0.000000 -0.000000 -0.000000 3.275331 12.917156 -30.103755 -0.025660 -0.802543 -12.764241 0.000001 0.000000 -0.000000 -0.000001 -0.000000 0.000001 0.832833 -0.345566 6.298754 -26.404712 -0.831298 31.831680 0.248011 72.413789 -0.315731 19.456682 0.885667 -0.799299 -15.960375 0.305745 -18.141867 -1.721776 -2.202881 5.222877 0.000000 0.000003 -0.000002 -6.094981 2.519305 -8.575216 0.133154 -0.789996 16.515585 0.000002 0.000000 0.000004 -1.224034 -4.137986 -2.364653 -0.156907 1.217917 25.198634 0.000002 0.000002 0.000002 3.749709 -11.542201 6.305217 -0.666297 2.463283 21.546964 -0.000001 0.000002 0.000001 6.007886 -4.072876 16.194956 -0.215608 2.043664 6.730534 -0.000000 0.000002 -0.000001 -0.000003 0.000001 -0.000002 -0.000000 0.000000 -0.000001 -0.000000 0.000000 -0.000001 -0.000000 0.000000 -0.000001 -0.000000 0.000000 -0.000001 -0.000000 0.000000 -0.000003 -0.000000 0.000001 0.000000 -0.000000 0.000000 -0.000001 -0.000000 0.000000 -0.000003 -0.000000 0.000001 0.000000 -0.000001 -0.000001 -0.000000 -0.000001 -0.000001 -0.000000 0.000001 0.000001 -0.000000 
